<?xml version="1.0" standalone="no"?>
<!DOCTYPE svg PUBLIC "-//W3C//DTD SVG 20010904//EN"
 "http://www.w3.org/TR/2001/REC-SVG-20010904/DTD/svg10.dtd">
<svg version="1.0" xmlns="http://www.w3.org/2000/svg"
 width="1408.000000pt" height="768.000000pt" viewBox="0 0 1408.000000 768.000000"
 preserveAspectRatio="xMidYMid meet">

<g transform="translate(0.000000,768.000000) scale(0.100000,-0.100000)"
fill="#000000" stroke="none">
<path d="M6295 4934 c-184 -30 -345 -121 -450 -256 -144 -183 -189 -428 -119
-640 l16 -48 104 0 104 0 0 -50 0 -50 -67 -1 c-38 -1 -71 -1 -75 0 -15 2 -8
-17 23 -60 18 -24 292 -305 610 -624 l579 -580 585 585 c392 392 600 606 629
650 152 228 155 523 10 757 -85 137 -246 256 -404 298 -183 49 -401 16 -564
-87 -28 -18 -138 -117 -244 -222 l-192 -190 -50 49 c-28 27 -50 54 -50 61 0 6
38 48 85 93 47 45 85 85 85 89 0 8 -79 76 -127 110 -52 36 -144 79 -208 96
-62 17 -227 28 -280 20z m313 -901 l2 -493 -80 0 -80 0 0 495 0 496 78 -3 77
-3 3 -492z m982 -88 l0 -506 -77 3 -78 3 -3 503 -2 502 80 0 80 0 0 -505z
m-1310 75 l0 -250 -80 0 -80 0 0 243 c0 134 3 247 7 250 3 4 39 7 80 7 l73 0
0 -250z m652 -232 c1 -238 2 -467 2 -508 l-1 -75 -77 -3 -76 -3 0 511 0 510
75 0 75 0 2 -432z m988 162 l0 -180 -80 0 -80 0 0 180 0 180 80 0 80 0 0 -180z
m-660 -90 l0 -110 -75 0 -75 0 0 110 0 110 75 0 75 0 0 -110z"/>
</g>
</svg>
